<svg xmlns="http://www.w3.org/2000/svg" viewBox="0 0 200 230" role="img" aria-label="Cutting Edge crest" shape-rendering="geometricPrecision">
  <!-- Hairline bar above shield -->
  <line x1="20" y1="9" x2="180" y2="9" stroke="#C9A66B" stroke-width="1.6" stroke-linecap="square"/>

  <!-- Shield outer outline -->
  <path d="
    M 30 22 L 60 22 L 60 28 L 70 28 L 70 22 L 130 22 L 130 28 L 140 28 L 140 22 L 170 22
    L 170 150 L 100 218 L 30 150 Z"
    fill="none" stroke="#C9A66B" stroke-width="2.8" stroke-linejoin="miter" stroke-miterlimit="10"/>

  <!-- Inner shield outline -->
  <path d="
    M 38 30 L 60 30 L 60 36 L 70 36 L 70 30 L 130 30 L 130 36 L 140 36 L 140 30 L 162 30
    L 162 147 L 100 207 L 38 147 Z"
    fill="none" stroke="#C9A66B" stroke-width="1.1" stroke-linejoin="miter" stroke-miterlimit="10"/>

  <!-- C: chunky carved C with knife-cut serifs at top and bottom -->
  <path fill="#C9A66B" stroke="none" fill-rule="evenodd" d="
    M 96 56
    L 96 64
    L 88 64
    L 80 64
    L 74 70
    L 70 80
    L 69 92
    L 69 108
    L 70 120
    L 74 130
    L 80 136
    L 88 136
    L 96 136
    L 96 144
    L 80 144
    L 70 140
    L 64 134
    L 60 124
    L 58 110
    L 58 90
    L 60 76
    L 64 66
    L 70 60
    L 80 56
    Z"/>

  <!-- E: heavy slab with bracketed serif terminals -->
  <path fill="#C9A66B" stroke="none" fill-rule="evenodd" d="
    M 104 56
    L 142 56
    L 142 74
    L 136 74
    L 136 66
    L 132 64
    L 118 64
    L 118 94
    L 130 94
    L 132 92
    L 132 86
    L 136 86
    L 136 114
    L 132 114
    L 132 108
    L 130 106
    L 118 106
    L 118 136
    L 132 136
    L 136 134
    L 136 126
    L 142 126
    L 142 144
    L 104 144
    L 104 136
    L 110 136
    L 110 64
    L 104 64
    Z"/>
</svg>
